HIERARCHY
ROOT Root
{
	OFFSET 0.00000 0.00000 0.00000
	CHANNELS 6 Xposition Yposition Zposition Zrotation Xrotation Yrotation
	JOINT Hip
	{
		OFFSET 0 0 0	
		CHANNELS 3 Zrotation Xrotation Yrotation
		JOINT Tummy
		{
			OFFSET 0 0.04 0	
			CHANNELS 3 Zrotation Xrotation Yrotation
			JOINT ChestBottom
			{
				OFFSET 0 0.194 0	
				CHANNELS 3 Zrotation Xrotation Yrotation
				JOINT ChestTop
				{
					OFFSET 0 0.166 0	
					CHANNELS 3 Zrotation Xrotation Yrotation
					JOINT LeftCollar
					{
						OFFSET 0 0.1 0	
						CHANNELS 3 Zrotation Xrotation Yrotation
						JOINT LeftUpperArm
						{
							OFFSET 0.156 -0.02 0.03	
							CHANNELS 3 Zrotation Xrotation Yrotation
							JOINT LeftForeArm
							{
								OFFSET 0.035 -0.27 -0.01	
								CHANNELS 3 Zrotation Xrotation Yrotation
								JOINT LeftHand
								{
									OFFSET 0.01 -0.27 0.01	
									CHANNELS 3 Zrotation Xrotation Yrotation
									End Site
									{
										OFFSET 0 -0.15 0
									}
								}
							}
						}
					}
					JOINT RightCollar
					{
						OFFSET 0 0.1 0	
						CHANNELS 3 Zrotation Xrotation Yrotation
						JOINT RightUpperArm
						{
							OFFSET -0.156 -0.02 0.03	
							CHANNELS 3 Zrotation Xrotation Yrotation
							JOINT RightForeArm
							{
								OFFSET -0.035 -0.27 -0.01	
								CHANNELS 3 Zrotation Xrotation Yrotation
								JOINT RightHand
								{
									OFFSET -0.01 -0.27 0.01	
									CHANNELS 3 Zrotation Xrotation Yrotation
									End Site
									{
										OFFSET 0 -0.15 0
									}
								}
							}
						}
					}
					JOINT Neck
					{
						OFFSET 0 0.1 0	
						CHANNELS 3 Zrotation Xrotation Yrotation
						JOINT Head
						{
							OFFSET 0 0.127 0.03	
							CHANNELS 3 Zrotation Xrotation Yrotation
							End Site
							{
								OFFSET 0 0.127 0.03
							}
						}
					}
				}
			}
		}
	}
	JOINT LeftHip
	{
		OFFSET 0 0 0	
		CHANNELS 3 Zrotation Xrotation Yrotation
		JOINT LeftThigh
		{
			OFFSET 0.088 -0.06 0	
			CHANNELS 3 Zrotation Xrotation Yrotation
			JOINT LeftLowerLeg
			{
				OFFSET 0 -0.39 0.02	
				CHANNELS 3 Zrotation Xrotation Yrotation
				JOINT LeftFootTop
				{
					OFFSET 0 -0.43 -0.02	
					CHANNELS 3 Zrotation Xrotation Yrotation
					JOINT LeftFootFront
					{
						OFFSET 0 -0.07 0.085	
						CHANNELS 3 Zrotation Xrotation Yrotation
						End Site
						{
							OFFSET 0 -0.005 0.09
						}
					}
				}
				JOINT LeftHeel
				{
					OFFSET 0 -0.43 -0.02	
					CHANNELS 3 Zrotation Xrotation Yrotation
					End Site
					{
						OFFSET 0 -0.075 -0.05
					}
				}
			}
		}
	}
	JOINT RightHip
	{
		OFFSET 0 0 0	
		CHANNELS 3 Zrotation Xrotation Yrotation
		JOINT RightThigh
		{
			OFFSET -0.088 -0.06 0	
			CHANNELS 3 Zrotation Xrotation Yrotation
			JOINT RightLowerLeg
			{
				OFFSET 0 -0.39 0.02	
				CHANNELS 3 Zrotation Xrotation Yrotation
				JOINT RightFootTop
				{
					OFFSET 0 -0.43 -0.02	
					CHANNELS 3 Zrotation Xrotation Yrotation
					JOINT RightFootFront
					{
						OFFSET 0 -0.07 0.085	
						CHANNELS 3 Zrotation Xrotation Yrotation
						End Site
						{
							OFFSET 0 -0.005 0.09
						}
					}
				}
				JOINT RightHeel
				{
					OFFSET 0 -0.43 -0.02	
					CHANNELS 3 Zrotation Xrotation Yrotation
					End Site
					{
						OFFSET 0 -0.075 -0.05
					}
				}
			}
		}
	}
}
MOTION
Frames: 12
Frame Time: 0.05
0 0.955 0 -0 0 -0 -9.2937 24.76 20.775 -5.1824 5.6383 4.7163 -5.1824 5.6383 4.7163 -4.3198 4.7655 3.9254 -0 0 -0 12.311 -59.533 -13.211 2.1356 8.2106 2.1881 -16.427 -69.544 -96.924 -0 0 -0 29.978 -51.481 36.776 -7.8648 8.9138 6.54 -34.252 -40.682 6.8948 11.589 -0.74721 -2.0169 11.589 -0.74722 -2.0169 -0 0 -0 -0 0 -0 -0 0 -0 -0 0 -0 -0 0 -0 -0 0 -0 -0 0 -0 -0 0 -0 -0 0 -0 -0 0 -0 -0 0 -0 -0 0 -0 
0 0.955 0 -0 0 -0 -9.3147 24.854 20.967 -5.1675 5.7032 4.7775 -5.1675 5.7032 4.7775 -4.3064 4.8203 3.9764 -0 0 -0 12.058 -59.844 -13.965 1.3724 7.8747 2.0397 -15.474 -69.352 -96.255 -0 0 -0 29.631 -51.585 36.397 -7.3911 8.5319 6.5279 -34.767 -40.098 5.6676 11.909 -0.8612 -2.2119 11.909 -0.86119 -2.2119 -0 0 -0 -0 0 -0 -0 0 -0 -0 0 -0 -0 0 -0 -0 0 -0 -0 0 -0 -0 0 -0 -0 0 -0 -0 0 -0 -0 0 -0 -0 0 -0 
0 0.955 0 -0 0 -0 -9.2297 24.897 21.056 -5.2297 5.7385 4.7331 -5.2297 5.7384 4.7331 -4.3587 4.85 3.9385 -0 0 -0 12.456 -60.083 -14.105 0.97853 7.5669 1.707 -14.434 -69.26 -95.198 -0 0 -0 29.59 -51.309 36.573 -7.0438 8.0573 6.5582 -34.953 -39.536 5.0542 12.305 -0.805 -2.434 12.305 -0.805 -2.434 -0 0 -0 -0 0 -0 -0 0 -0 -0 0 -0 -0 0 -0 -0 0 -0 -0 0 -0 -0 0 -0 -0 0 -0 -0 0 -0 -0 0 -0 -0 0 -0 
0 0.955 0 -0 0 -0 -9.0964 24.896 21 -5.2849 5.7668 4.7665 -5.2849 5.7668 4.7665 -4.4047 4.8743 3.9659 -0 0 -0 12.522 -60.33 -14.583 0.5856 7.3658 1.4441 -13.346 -69.001 -93.927 -0 0 -0 29.426 -51.124 36.477 -6.8622 7.7153 6.7327 -35.241 -39.144 4.733 12.341 -0.69747 -2.9318 12.341 -0.69747 -2.9318 -0 0 -0 -0 0 -0 -0 0 -0 -0 0 -0 -0 0 -0 -0 0 -0 -0 0 -0 -0 0 -0 -0 0 -0 -0 0 -0 -0 0 -0 -0 0 -0 
0 0.955 0 -0 0 -0 -9.1632 24.947 20.875 -5.2502 5.6697 4.8519 -5.2502 5.6697 4.8519 -4.3755 4.7931 4.0386 -0 0 -0 12.445 -60.34 -15.218 0.32949 7.2232 1.1628 -12.243 -68.83 -92.52 -0 0 -0 29.152 -50.921 36.06 -6.7857 7.586 6.938 -35.558 -38.818 4.6582 12.343 -0.50816 -3.6441 12.343 -0.50816 -3.6441 -0 0 -0 -0 0 -0 -0 0 -0 -0 0 -0 -0 0 -0 -0 0 -0 -0 0 -0 -0 0 -0 -0 0 -0 -0 0 -0 -0 0 -0 -0 0 -0 
0 0.955 0 -0 0 -0 -9.3045 24.828 20.564 -5.1598 5.651 4.9586 -5.1598 5.651 4.9586 -4.2991 4.7775 4.1288 -0 0 -0 12.832 -60.357 -15.3 0.28396 7.21 0.68396 -11.304 -69.116 -91.152 -0 0 -0 29.022 -50.8 35.918 -6.8595 7.5255 7.0092 -35.56 -38.629 4.7344 12.37 -0.40893 -4.8985 12.37 -0.40894 -4.8985 -0 0 -0 -0 0 -0 -0 0 -0 -0 0 -0 -0 0 -0 -0 0 -0 -0 0 -0 -0 0 -0 -0 0 -0 -0 0 -0 -0 0 -0 -0 0 -0 
0 0.955 0 -0 0 -0 -9.3608 24.621 20.042 -5.1558 5.7016 5.1369 -5.1558 5.7016 5.1369 -4.2942 4.8211 4.2782 -0 0 -0 13.673 -60.191 -14.959 0.34742 7.0057 0.03359 -10.526 -69.705 -90.089 -0 0 -0 28.975 -50.708 35.752 -7.0602 7.4008 7.0084 -35.612 -38.636 4.7914 12.47 -0.41359 -7.2932 12.47 -0.41359 -7.2932 -0 0 -0 -0 0 -0 -0 0 -0 -0 0 -0 -0 0 -0 -0 0 -0 -0 0 -0 -0 0 -0 -0 0 -0 -0 0 -0 -0 0 -0 -0 0 -0 
0 0.955 0 -0 0 -0 -9.0336 24.289 19.025 -5.3559 5.8052 5.4466 -5.3559 5.8052 5.4466 -4.4594 4.9113 4.5362 -0 0 -0 14.691 -59.655 -14.341 0.54346 6.6145 -0.70164 -10.061 -70.273 -89.471 -0 0 -0 28.856 -50.413 35.188 -7.1046 7.0138 6.9555 -35.451 -38.689 4.9979 12.677 -0.36365 -10.487 12.677 -0.36366 -10.487 -0 0 -0 -0 0 -0 -0 0 -0 -0 0 -0 -0 0 -0 -0 0 -0 -0 0 -0 -0 0 -0 -0 0 -0 -0 0 -0 -0 0 -0 -0 0 -0 
0 0.955 0 -0 0 -0 -8.6048 24.079 17.643 -5.556 5.7051 5.847 -5.556 5.7051 5.847 -4.6255 4.8313 4.8717 -0 0 -0 15.075 -58.211 -13.819 0.71883 5.9624 -1.3856 -9.7493 -70.742 -89.224 -0 0 -0 27.788 -49.641 33.248 -6.3862 5.8204 7.0006 -34.746 -38.306 5.9552 13.135 -0.29525 -13.393 13.135 -0.29525 -13.393 -0 0 -0 -0 0 -0 -0 0 -0 -0 0 -0 -0 0 -0 -0 0 -0 -0 0 -0 -0 0 -0 -0 0 -0 -0 0 -0 -0 0 -0 -0 0 -0 
0 0.955 0 -0 0 -0 -7.9267 23.831 16.012 -5.7608 5.5696 6.1713 -5.7608 5.5696 6.1713 -4.7965 4.7211 5.1438 -0 0 -0 14.781 -56.426 -13.198 0.79021 5.2633 -1.8328 -9.5191 -70.839 -89.399 -0 0 -0 25.663 -48.569 29.515 -4.2021 3.3212 7.4172 -33.693 -37.759 7.5181 13.529 -0.068941 -15.464 13.529 -0.068938 -15.464 -0 0 -0 -0 0 -0 -0 0 -0 -0 0 -0 -0 0 -0 -0 0 -0 -0 0 -0 -0 0 -0 -0 0 -0 -0 0 -0 -0 0 -0 -0 0 -0 
0 0.955 0 -0 0 -0 -6.8536 23.562 14.235 -5.976 5.31 6.2561 -5.976 5.31 6.2561 -4.9788 4.5052 5.2157 -0 0 -0 13.368 -53.967 -12.858 0.72203 4.3005 -1.5864 -8.3837 -71.088 -89.208 -0 0 -0 22.346 -46.652 23.632 -0.25632 -0.042929 8.6578 -34.171 -37.842 7.8156 13.843 0.56161 -16.541 13.843 0.5616 -16.541 -0 0 -0 -0 0 -0 -0 0 -0 -0 0 -0 -0 0 -0 -0 0 -0 -0 0 -0 -0 0 -0 -0 0 -0 -0 0 -0 -0 0 -0 -0 0 -0 
0 0.955 0 -0 0 -0 -5.7442 23.603 12.465 -5.9691 4.7673 5.9943 -5.9691 4.7673 5.9943 -4.9789 4.0473 5.0003 -0 0 -0 10.977 -50.536 -12.724 0.36568 2.8702 -0.47525 -4.7566 -71.645 -86.168 -0 0 -0 17.695 -43.489 16.015 4.6478 -3.0336 11.412 -33.689 -38.214 6.6566 13.75 1.6508 -16.841 13.75 1.6508 -16.841 -0 0 -0 -0 0 -0 -0 0 -0 -0 0 -0 -0 0 -0 -0 0 -0 -0 0 -0 -0 0 -0 -0 0 -0 -0 0 -0 -0 0 -0 -0 0 -0 
